<svg width="20" height="20" viewBox="0 0 20 20" fill="none" xmlns="http://www.w3.org/2000/svg">
<path d="M0.418677 13.597C0.584757 12.4968 1.67524 11.7817 2.76047 12.0609L5.38743 12.7357C5.86535 12.8588 6.15185 13.3434 6.02805 13.8177C5.90412 14.2922 5.41636 14.5773 4.93821 14.4544L3.40598 14.0599C4.64095 15.881 6.97662 18.5027 10.9958 18.2005C13.0194 18.0483 14.775 17.1602 16.072 16.098C16.7189 15.5681 17.2389 15.006 17.6101 14.4915C17.9917 13.9626 18.1777 13.538 18.2282 13.2864C18.3247 12.8057 18.7955 12.4935 19.28 12.5892C19.7643 12.6848 20.0792 13.1516 19.9831 13.6321C19.8632 14.2303 19.5203 14.8926 19.0642 15.5247C18.5976 16.1715 17.9699 16.8453 17.2107 17.4671C15.6951 18.7084 13.6003 19.7842 11.1316 19.97C6.21714 20.3397 3.37837 17.1629 1.9929 15.1517L1.77903 16.5677C1.70587 17.0524 1.25084 17.3872 0.762427 17.3148C0.273894 17.2421 -0.0627054 16.7898 0.0104736 16.305L0.418677 13.597ZM13.9997 13.0003C14.552 13.0003 14.9997 13.448 14.9997 14.0003C14.9995 14.5524 14.5519 15.0003 13.9997 15.0003C13.4477 15.0001 12.9999 14.5523 12.9997 14.0003C12.9997 13.4481 13.4476 13.0005 13.9997 13.0003ZM9.51047 7.38507C9.63494 6.87179 10.3655 6.87179 10.49 7.38507L10.8318 8.79718C10.8762 8.98044 11.0196 9.12384 11.2029 9.16828L12.615 9.51007C13.1282 9.63454 13.1282 10.3651 12.615 10.4896L11.2029 10.8323C11.0197 10.8768 10.8762 11.0193 10.8318 11.2025L10.49 12.6146C10.3655 13.1278 9.63494 13.1278 9.51047 12.6146L9.1677 11.2025C9.12321 11.0194 8.98061 10.8768 8.79758 10.8323L7.38547 10.4896C7.35339 10.4818 7.32272 10.4715 7.29465 10.4593C6.87376 10.276 6.90433 9.62674 7.38547 9.51007L8.79758 9.16828C8.98076 9.12382 9.12325 8.98036 9.1677 8.79718L9.51047 7.38507ZM8.86887 0.0296046C13.7824 -0.34001 16.6208 2.83572 18.0066 4.84699L18.2214 3.43195C18.2946 2.94718 18.7495 2.61324 19.238 2.68585C19.7265 2.75846 20.0631 3.20992 19.99 3.69464L19.5818 6.40363C19.4155 7.50359 18.3251 8.21885 17.24 7.93976L14.613 7.26398C14.135 7.14093 13.8476 6.65633 13.9714 6.18195C14.0954 5.70745 14.5841 5.42224 15.0622 5.54523L16.5925 5.93878C15.3573 4.11773 13.0225 1.4971 9.00461 1.79914C6.9811 1.95135 5.22541 2.83942 3.92844 3.90167C3.28146 4.43158 2.76158 4.99453 2.39036 5.5091C2.00873 6.03815 1.82263 6.46271 1.77219 6.71417C1.67564 7.1946 1.20467 7.50686 0.720435 7.41144C0.236036 7.31578 -0.0789567 6.84816 0.0173095 6.3675C0.137264 5.76942 0.480252 5.108 0.936255 4.47589C1.40289 3.82908 2.03044 3.15446 2.78977 2.53253C4.30539 1.29122 6.40017 0.21534 8.86887 0.0296046ZM5.99973 5.00031C6.55202 5.00031 6.99973 5.44802 6.99973 6.00031C6.99952 6.55241 6.55189 7.00031 5.99973 7.00031C5.44775 7.0001 4.99994 6.55229 4.99973 6.00031C4.99973 5.44815 5.44762 5.00051 5.99973 5.00031Z" fill="#272725"/>
</svg>
